<?xml version="1.0" encoding="UTF-8" standalone="no"?>
<!-- Generator: Adobe Illustrator 19.0.0, SVG Export Plug-In . SVG Version: 6.00 Build 0)  -->

<svg
   version="1.1"
   id="Layer_1"
   x="0px"
   y="0px"
   viewBox="0 0 512 512"
   style="enable-background:new 0 0 512 512;"
   xml:space="preserve"
   sodipodi:docname="prev.svg"
   inkscape:version="1.1 (c68e22c387, 2021-05-23)"
   xmlns:inkscape="http://www.inkscape.org/namespaces/inkscape"
   xmlns:sodipodi="http://sodipodi.sourceforge.net/DTD/sodipodi-0.dtd"
   xmlns="http://www.w3.org/2000/svg"
   xmlns:svg="http://www.w3.org/2000/svg"><defs
   id="defs904" /><sodipodi:namedview
   id="namedview902"
   pagecolor="#ffffff"
   bordercolor="#666666"
   borderopacity="1.0"
   inkscape:pageshadow="2"
   inkscape:pageopacity="0.0"
   inkscape:pagecheckerboard="0"
   showgrid="false"
   inkscape:zoom="1.5800781"
   inkscape:cx="256"
   inkscape:cy="256"
   inkscape:window-width="1920"
   inkscape:window-height="1017"
   inkscape:window-x="-8"
   inkscape:window-y="-8"
   inkscape:window-maximized="1"
   inkscape:current-layer="Layer_1" />
<g
   id="g869"
   style="fill:#ffffff"
   transform="rotate(180,256,256)">
	<g
   id="g867"
   style="fill:#ffffff">
		<path
   d="M 256,0 C 114.837,0 0,114.837 0,256 0,397.163 114.837,512 256,512 397.163,512 512,397.163 512,256 512,114.837 397.163,0 256,0 Z m 79.083,271.083 -106.667,106.666 c -4.16,4.16 -9.621,6.251 -15.083,6.251 -5.461,0 -10.923,-2.091 -15.083,-6.251 -8.341,-8.341 -8.341,-21.824 0,-30.165 L 289.835,256 198.251,164.416 c -8.341,-8.341 -8.341,-21.824 0,-30.165 8.341,-8.341 21.824,-8.341 30.165,0 l 106.667,106.667 c 8.341,8.341 8.341,21.823 0,30.165 z"
   id="path865"
   style="fill:#ffffff" />
	</g>
</g>
<g
   id="g871">
</g>
<g
   id="g873">
</g>
<g
   id="g875">
</g>
<g
   id="g877">
</g>
<g
   id="g879">
</g>
<g
   id="g881">
</g>
<g
   id="g883">
</g>
<g
   id="g885">
</g>
<g
   id="g887">
</g>
<g
   id="g889">
</g>
<g
   id="g891">
</g>
<g
   id="g893">
</g>
<g
   id="g895">
</g>
<g
   id="g897">
</g>
<g
   id="g899">
</g>
</svg>
