<?xml version="1.0" encoding="UTF-8" standalone="no"?>
<!-- Generator: Adobe Illustrator 18.1.1, SVG Export Plug-In . SVG Version: 6.00 Build 0)  -->

<svg
   version="1.1"
   id="Capa_1"
   x="0px"
   y="0px"
   viewBox="0 0 23.625 23.625"
   style="enable-background:new 0 0 23.625 23.625;"
   xml:space="preserve"
   sodipodi:docname="info.svg"
   inkscape:version="1.1 (c68e22c387, 2021-05-23)"
   xmlns:inkscape="http://www.inkscape.org/namespaces/inkscape"
   xmlns:sodipodi="http://sodipodi.sourceforge.net/DTD/sodipodi-0.dtd"
   xmlns="http://www.w3.org/2000/svg"
   xmlns:svg="http://www.w3.org/2000/svg"><defs
   id="defs900" /><sodipodi:namedview
   id="namedview898"
   pagecolor="#ffffff"
   bordercolor="#666666"
   borderopacity="1.0"
   inkscape:pageshadow="2"
   inkscape:pageopacity="0.0"
   inkscape:pagecheckerboard="0"
   showgrid="false"
   inkscape:zoom="34.243386"
   inkscape:cx="11.8125"
   inkscape:cy="13.73988"
   inkscape:window-width="1920"
   inkscape:window-height="1017"
   inkscape:window-x="-8"
   inkscape:window-y="-8"
   inkscape:window-maximized="1"
   inkscape:current-layer="Capa_1" />

<g
   id="g867">
</g>
<g
   id="g869">
</g>
<g
   id="g871">
</g>
<g
   id="g873">
</g>
<g
   id="g875">
</g>
<g
   id="g877">
</g>
<g
   id="g879">
</g>
<g
   id="g881">
</g>
<g
   id="g883">
</g>
<g
   id="g885">
</g>
<g
   id="g887">
</g>
<g
   id="g889">
</g>
<g
   id="g891">
</g>
<g
   id="g893">
</g>
<g
   id="g895">
</g>
<g
   id="g4"
   style="fill:#403731;fill-opacity:1"
   transform="matrix(0.1299551,0,0,0.1299551,4.224232,4.5553406)"><path
     d="m 78.962,99.536 -1.559,6.373 c -4.677,1.846 -8.413,3.251 -11.195,4.217 -2.785,0.969 -6.021,1.451 -9.708,1.451 -5.662,0 -10.066,-1.387 -13.207,-4.142 -3.141,-2.766 -4.712,-6.271 -4.712,-10.523 0,-1.646 0.114,-3.339 0.351,-5.064 0.239,-1.727 0.619,-3.672 1.139,-5.846 l 5.845,-20.688 c 0.52,-1.981 0.962,-3.858 1.316,-5.633 0.359,-1.764 0.532,-3.387 0.532,-4.848 0,-2.642 -0.547,-4.49 -1.636,-5.529 -1.089,-1.036 -3.167,-1.562 -6.252,-1.562 -1.511,0 -3.064,0.242 -4.647,0.71 -1.59,0.47 -2.949,0.924 -4.09,1.346 l 1.563,-6.378 c 3.829,-1.559 7.489,-2.894 10.99,-4.002 3.501,-1.111 6.809,-1.667 9.938,-1.667 5.623,0 9.962,1.359 13.009,4.077 3.047,2.72 4.57,6.246 4.57,10.591 0,0.899 -0.1,2.483 -0.315,4.747 -0.21,2.269 -0.601,4.348 -1.171,6.239 l -5.82,20.605 c -0.477,1.655 -0.906,3.547 -1.279,5.676 -0.385,2.115 -0.569,3.731 -0.569,4.815 0,2.736 0.61,4.604 1.833,5.597 1.232,0.993 3.354,1.487 6.368,1.487 1.415,0 3.025,-0.251 4.814,-0.744 1.784,-0.493 3.085,-0.926 3.892,-1.305 z M 80.438,13.03 c 0,3.59 -1.353,6.656 -4.072,9.177 -2.712,2.53 -5.98,3.796 -9.803,3.796 -3.835,0 -7.111,-1.266 -9.854,-3.796 -2.738,-2.522 -4.11,-5.587 -4.11,-9.177 0,-3.583 1.372,-6.654 4.11,-9.207 C 59.447,1.274 62.729,0 66.563,0 c 3.822,0 7.091,1.277 9.803,3.823 2.721,2.553 4.072,5.625 4.072,9.207 z"
     id="path2"
     style="fill:#403731;fill-opacity:1" /></g></svg>
