<?xml version="1.0" encoding="UTF-8" standalone="no"?>
<!-- Generator: Adobe Illustrator 19.0.0, SVG Export Plug-In . SVG Version: 6.00 Build 0)  -->

<svg
   version="1.1"
   id="Capa_1"
   x="0px"
   y="0px"
   viewBox="0 0 511.76 511.76"
   style="enable-background:new 0 0 511.76 511.76;"
   xml:space="preserve"
   sodipodi:docname="close.svg"
   inkscape:version="1.1 (c68e22c387, 2021-05-23)"
   xmlns:inkscape="http://www.inkscape.org/namespaces/inkscape"
   xmlns:sodipodi="http://sodipodi.sourceforge.net/DTD/sodipodi-0.dtd"
   xmlns="http://www.w3.org/2000/svg"
   xmlns:svg="http://www.w3.org/2000/svg"><defs
   id="defs2231" /><sodipodi:namedview
   id="namedview2229"
   pagecolor="#ffffff"
   bordercolor="#666666"
   borderopacity="1.0"
   inkscape:pageshadow="2"
   inkscape:pageopacity="0.0"
   inkscape:pagecheckerboard="0"
   showgrid="false"
   inkscape:zoom="1.5808191"
   inkscape:cx="131.26106"
   inkscape:cy="255.88"
   inkscape:window-width="1920"
   inkscape:window-height="1017"
   inkscape:window-x="-8"
   inkscape:window-y="-8"
   inkscape:window-maximized="1"
   inkscape:current-layer="Capa_1" />
<rect
   style="fill:#d93b26;fill-opacity:1"
   id="rect2357"
   width="290.3558"
   height="283.39737"
   x="108.17177"
   y="114.4976" /><g
   id="g2196"
   style="fill:#ffffff">
	<g
   id="g2194"
   style="fill:#ffffff">
		<path
   d="M436.896,74.869c-99.84-99.819-262.208-99.819-362.048,0c-99.797,99.819-99.797,262.229,0,362.048    c49.92,49.899,115.477,74.837,181.035,74.837s131.093-24.939,181.013-74.837C536.715,337.099,536.715,174.688,436.896,74.869z     M361.461,331.317c8.341,8.341,8.341,21.824,0,30.165c-4.16,4.16-9.621,6.251-15.083,6.251c-5.461,0-10.923-2.091-15.083-6.251    l-75.413-75.435l-75.392,75.413c-4.181,4.16-9.643,6.251-15.083,6.251c-5.461,0-10.923-2.091-15.083-6.251    c-8.341-8.341-8.341-21.845,0-30.165l75.392-75.413l-75.413-75.413c-8.341-8.341-8.341-21.845,0-30.165    c8.32-8.341,21.824-8.341,30.165,0l75.413,75.413l75.413-75.413c8.341-8.341,21.824-8.341,30.165,0    c8.341,8.32,8.341,21.824,0,30.165l-75.413,75.413L361.461,331.317z"
   id="path2192"
   style="fill:#ffffff" />
	</g>
</g>
<g
   id="g2198">
</g>
<g
   id="g2200">
</g>
<g
   id="g2202">
</g>
<g
   id="g2204">
</g>
<g
   id="g2206">
</g>
<g
   id="g2208">
</g>
<g
   id="g2210">
</g>
<g
   id="g2212">
</g>
<g
   id="g2214">
</g>
<g
   id="g2216">
</g>
<g
   id="g2218">
</g>
<g
   id="g2220">
</g>
<g
   id="g2222">
</g>
<g
   id="g2224">
</g>
<g
   id="g2226">
</g>
</svg>
