<?xml version="1.0" encoding="UTF-8" standalone="no"?>
<svg
   width="1365.12"
   height="1365.12"
   viewBox="0 0 14222 14222"
   version="1.1"
   id="svg838"
   sodipodi:docname="star.svg"
   inkscape:version="1.1 (c68e22c387, 2021-05-23)"
   xmlns:inkscape="http://www.inkscape.org/namespaces/inkscape"
   xmlns:sodipodi="http://sodipodi.sourceforge.net/DTD/sodipodi-0.dtd"
   xmlns="http://www.w3.org/2000/svg"
   xmlns:svg="http://www.w3.org/2000/svg">
  <defs
     id="defs842" />
  <sodipodi:namedview
     id="namedview840"
     pagecolor="#ffffff"
     bordercolor="#666666"
     borderopacity="1.0"
     inkscape:pageshadow="2"
     inkscape:pageopacity="0.0"
     inkscape:pagecheckerboard="0"
     showgrid="false"
     inkscape:zoom="0.58781078"
     inkscape:cx="683.04293"
     inkscape:cy="681.34171"
     inkscape:window-width="1920"
     inkscape:window-height="1017"
     inkscape:window-x="-8"
     inkscape:window-y="-8"
     inkscape:window-maximized="1"
     inkscape:current-layer="svg838" />
  <circle
     cx="7111"
     cy="7112"
     r="7111"
     fill="#1977f3"
     id="circle834"
     style="fill:#dea93f;fill-opacity:1" />
  <g
     id="g869"
     style="fill:#ffffbe;fill-opacity:1"
     transform="matrix(19.348801,0,0,19.348801,2159.4513,1819.8326)">
    <g
       id="g867"
       style="fill:#ffffbe;fill-opacity:1">
      <path
         d="m 511.267,197.258 c -1.764,-5.431 -6.457,-9.389 -12.107,-10.209 L 340.437,163.984 269.452,20.157 c -2.526,-5.12 -7.741,-8.361 -13.45,-8.361 -5.71,0 -10.924,3.241 -13.451,8.361 l -70.988,143.827 -158.72,23.065 c -5.649,0.82 -10.344,4.778 -12.108,10.208 -1.765,5.431 -0.293,11.392 3.796,15.377 L 119.379,324.588 92.271,482.671 c -0.966,5.628 1.348,11.314 5.967,14.671 2.613,1.898 5.708,2.864 8.818,2.864 2.388,0 4.784,-0.569 6.978,-1.723 l 141.967,-74.638 141.961,74.637 c 5.055,2.657 11.178,2.215 15.797,-1.141 4.619,-3.356 6.934,-9.044 5.969,-14.672 L 392.611,324.588 507.472,212.633 c 4.088,-3.984 5.561,-9.945 3.795,-15.375 z"
         id="path865"
         style="fill:#ffffbe;fill-opacity:1" />
    </g>
  </g>
</svg>
